<svg id="Layer_2" data-name="Layer 2" xmlns="http://www.w3.org/2000/svg" width="40" height="40" viewBox="0 0 40 40">
  <defs>
    <style>
      .cls-1 {
        fill: #eeeded;
      }

      .cls-2 {
        fill: #2b273c;
      }

      .cls-3 {
        fill: #ef3c3c;
      }
    </style>
  </defs>
  <path class="cls-1" d="M34.38312,6H16.16785A7.83956,7.83956,0,0,0,2.10291,6H8.248l1.75,3.5L8.248,13H2.10291a7.90106,7.90106,0,0,0,10.215,3.74249A7.29542,7.29542,0,0,0,16.22656,13H18V9l6.69366,4H26V7h5v6h3.38312a3.5,3.5,0,0,0,0-7Z"/>
  <path class="cls-2" d="M32,18H30V8H27v6H25V7a.99943.99943,0,0,1,1-1h5a.99943.99943,0,0,1,1,1Z"/>
  <path class="cls-2" d="M34,20V36H31V26a.99943.99943,0,0,0-1-1H24a.99943.99943,0,0,0-1,1V36H6v-11.877L18.48242,17.251A1.00012,1.00012,0,0,0,19,16.375V10.55859H17v5.22559L4.51758,22.65625A1.00012,1.00012,0,0,0,4,23.53223V37a.99943.99943,0,0,0,1,1H35a.99943.99943,0,0,0,1-1V20ZM25,36V27h4v9Z"/>
  <path class="cls-2" d="M19,33H11a.99943.99943,0,0,1-1-1V26a.99943.99943,0,0,1,1-1h8a.99943.99943,0,0,1,1,1v6A.99943.99943,0,0,1,19,33Zm-7-2h6V27H12Z"/>
  <g>
    <path class="cls-3" d="M37.501,18.28027l-20-11.56543A.99965.99965,0,0,0,16,7.58008V9.52734a.999.999,0,0,0,.48633.85743l20,11.98046A.99937.99937,0,0,0,38,21.50781v-2.3623A.99943.99943,0,0,0,37.501,18.28027Z"/>
    <path class="cls-3" d="M18.501,14.10059a.99726.99726,0,0,0-1-.001l-15,8.63379A.99958.99958,0,0,0,2,23.59961v2.29785a.99926.99926,0,0,0,1.51367.85742l15-8.99023A.999.999,0,0,0,19,16.90723V14.96582A.99941.99941,0,0,0,18.501,14.10059Z"/>
  </g>
</svg>
